<svg width="19" height="23" viewBox="0 0 19 23" fill="none" xmlns="http://www.w3.org/2000/svg">
<g id="Vector">
<path fill-rule="evenodd" clip-rule="evenodd" d="M5.64032 6.1608C6.40503 6.1608 7.09063 6.34404 7.77623 6.57964C8.19814 6.71052 8.59368 6.86759 9.01558 6.9723C9.78029 7.15554 10.5186 7.07701 11.257 6.81523C11.7844 6.60581 12.2854 6.42257 12.8391 6.29169C14.474 5.9252 15.9507 6.29169 17.2692 7.28643C17.6383 7.5482 17.9548 7.86233 18.2448 8.22881C18.3503 8.3597 18.3503 8.38588 18.1921 8.49059C16.8473 9.30209 16.0562 10.5324 15.9243 12.1031C15.7925 13.5952 16.2408 14.904 17.2692 15.9773C17.7174 16.4485 18.2448 16.7888 18.8513 17.0506C19.0095 17.1291 19.0359 17.1553 18.9568 17.3124C18.2976 18.8568 17.401 20.2704 16.2935 21.5531C15.9243 21.9719 15.4761 22.3646 14.975 22.6526C14.1576 23.0976 13.3401 23.0976 12.4963 22.7311C12.1535 22.6002 11.8107 22.417 11.4679 22.2861C10.3077 21.9458 9.1738 21.9719 8.03992 22.4431C7.74986 22.574 7.4598 22.7049 7.16973 22.8096C6.08859 23.2023 5.11293 22.9667 4.21638 22.2599C3.68899 21.8411 3.24071 21.3175 2.84517 20.7678C1.89588 19.5113 1.15754 18.15 0.656523 16.6579C0.287353 15.6108 0.0763986 14.5114 0.0236601 13.3858C-0.0554478 12.1554 0.0500293 10.9513 0.551046 9.79946C1.31575 8.04557 2.63422 6.84141 4.53281 6.29169C4.90198 6.18698 5.29752 6.13462 5.64032 6.1608Z" fill="#FDFDFD"/>
<path fill-rule="evenodd" clip-rule="evenodd" d="M13.7357 1.50122C13.7357 2.54832 13.3929 3.43835 12.8655 4.24985C12.259 5.16606 11.4152 5.79432 10.3604 6.13462C10.044 6.23933 9.70118 6.29169 9.38475 6.29169C9.22654 6.29169 9.20017 6.23933 9.1738 6.10844C9.09469 5.3493 9.25291 4.61633 9.59571 3.93572C10.2286 2.5745 11.3097 1.71064 12.7073 1.18709C12.971 1.10856 13.261 1.05621 13.5775 1.00385C13.7093 0.977675 13.7093 1.05621 13.7357 1.16092C13.7357 1.2918 13.7621 1.42269 13.7357 1.50122Z" fill="#FDFDFD"/>
</g>
</svg>
