<svg width="244" height="46" viewBox="0 0 244 46" fill="none" xmlns="http://www.w3.org/2000/svg">
<g id="Icon">
<rect id="Rectangle 10" width="46" height="46" rx="5" fill="white"/>
<rect id="Rectangle 11" x="66" width="46" height="46" rx="5" fill="white"/>
<rect id="Rectangle 12" x="132" width="46" height="46" rx="5" fill="white"/>
<rect id="Rectangle 13" x="198" width="46" height="46" rx="5" fill="white"/>
<g id="Vector">
<path d="M228.174 14.1789C227.232 14.1789 226.478 14.9409 226.478 15.8751C226.478 16.8175 227.24 17.5713 228.174 17.5713C229.116 17.5713 229.87 16.8093 229.87 15.8751C229.878 14.9409 229.116 14.1789 228.174 14.1789Z" fill="url(#paint0_linear_73_1020)"/>
<path d="M220.619 16.3586C216.686 16.3586 213.481 19.5626 213.481 23.4959C213.481 27.4292 216.686 30.6332 220.619 30.6332C224.552 30.6332 227.756 27.4292 227.756 23.4959C227.756 19.5626 224.552 16.3586 220.619 16.3586ZM220.619 28.0766C218.095 28.0766 216.046 26.028 216.046 23.5041C216.046 20.9802 218.095 18.9316 220.619 18.9316C223.143 18.9316 225.191 20.9802 225.191 23.5041C225.191 26.0198 223.143 28.0766 220.619 28.0766Z" fill="url(#paint1_linear_73_1020)"/>
<path d="M226.289 38H214.711C209.909 38 206 34.0913 206 29.2893V17.7107C206 12.9087 209.909 9 214.711 9H226.289C231.091 9 235 12.9087 235 17.7107V29.2893C234.992 34.0913 231.091 38 226.289 38ZM214.711 11.7287C211.417 11.7287 208.729 14.4083 208.729 17.7107V29.2893C208.729 32.5835 211.408 35.2713 214.711 35.2713H226.289C229.592 35.2713 232.271 32.5917 232.271 29.2893V17.7107C232.271 14.4165 229.592 11.7287 226.289 11.7287H214.711Z" fill="url(#paint2_linear_73_1020)"/>
</g>
<path id="Vector_2" d="M29.0185 25.3115L29.7942 20.0656H24.934V16.6557C24.934 15.2213 25.6148 13.8197 27.7916 13.8197H30V9.35246C30 9.35246 27.9974 9 26.0739 9C22.0686 9 19.4485 11.5164 19.4485 16.0656V20.0656H15V25.3115H19.4485V38H24.9261V25.3115H29.0185Z" fill="#337FFF"/>
<path id="Vector_3" d="M105.853 12.4799C104.738 12.9879 103.517 13.2911 102.312 13.496C102.882 13.3977 103.72 12.3652 104.054 11.939C104.567 11.2999 104.99 10.5706 105.227 9.78388C105.259 9.71832 105.284 9.64457 105.218 9.5954C105.145 9.56263 105.088 9.57901 105.031 9.61179C103.696 10.3329 102.312 10.8574 100.83 11.2261C100.708 11.2589 100.618 11.2261 100.537 11.1524C100.415 11.0131 100.301 10.8819 100.17 10.7754C99.5516 10.2428 98.884 9.82485 98.1349 9.52165C97.1497 9.12012 96.075 8.94803 95.0166 9.01358C93.9825 9.07914 92.9729 9.37415 92.061 9.85763C91.141 10.3411 90.3268 11.0131 89.6755 11.8161C88.9997 12.652 88.503 13.6435 88.2506 14.6924C88.0064 15.7003 88.0227 16.7001 88.1774 17.7244C88.2018 17.8965 88.1855 17.9129 88.0308 17.8965C82.2663 17.0361 77.487 14.9546 73.6115 10.5132C73.4405 10.3165 73.3509 10.3165 73.2125 10.5296C71.519 13.0863 72.3413 17.2 74.4582 19.224C74.7432 19.4944 75.0282 19.7648 75.3457 20.0107C75.2317 20.0353 73.8232 19.8796 72.5612 19.224C72.3902 19.1175 72.3088 19.1748 72.2925 19.3715C72.2762 19.6501 72.3006 19.9042 72.3413 20.1992C72.667 22.7968 74.4501 25.1978 76.9008 26.132C77.1939 26.2549 77.5114 26.3615 77.829 26.4188C77.2753 26.5417 76.6973 26.6319 75.1014 26.5008C74.906 26.4598 74.8246 26.5663 74.906 26.7548C76.1029 30.049 78.7002 31.0324 80.6379 31.5896C80.8985 31.6388 81.159 31.6388 81.4196 31.6961C81.4033 31.7207 81.387 31.7207 81.3707 31.7453C80.7275 32.7368 78.4966 33.4662 77.4544 33.8349C75.5655 34.4987 73.5056 34.8019 71.5109 34.6052C71.1933 34.556 71.12 34.5642 71.0386 34.6052C70.9491 34.6625 71.0305 34.7363 71.1282 34.8183C71.5353 35.0887 71.9424 35.3263 72.3658 35.5558C73.6359 36.2359 74.9549 36.7685 76.339 37.1537C83.4876 39.1368 91.5318 37.6782 96.8973 32.3189C101.107 28.1069 102.589 22.297 102.589 16.4788C102.589 16.2494 102.857 16.1265 103.012 16.0035C104.111 15.1759 104.99 14.1844 105.813 13.0781C106 12.8323 106 12.611 106 12.5209C106 12.5045 106 12.4881 106 12.4881C106 12.3897 106 12.4143 105.853 12.4799Z" fill="#33CCFF"/>
<path id="Vector_4" fill-rule="evenodd" clip-rule="evenodd" d="M152.6 27.2592C152.575 27.3384 152.55 27.4096 152.533 27.4729C151.442 31.5026 151.325 32.3971 150.2 34.2734C149.663 35.1601 149.067 36.0071 148.396 36.8147C148.32 36.9097 148.253 37.0205 148.102 36.9967C147.934 36.9651 147.926 36.8226 147.909 36.7038C147.733 35.4767 147.632 34.2496 147.674 33.0146C147.733 31.4075 147.942 30.8534 150.141 22.1212C150.175 21.9867 150.141 21.8758 150.091 21.7571C149.562 20.4192 149.462 19.0575 149.923 17.6721C150.922 14.6954 154.497 14.4658 155.127 16.92C155.513 18.44 154.489 20.4271 153.708 23.3721C153.062 25.7946 156.083 27.5204 158.677 25.755C161.06 24.1242 161.992 20.2054 161.815 17.4345C161.471 11.9008 155.043 10.7053 150.964 12.4866C146.289 14.5291 145.223 19.9916 147.338 22.4933C147.607 22.81 147.808 23.0079 147.724 23.3246C147.59 23.8233 147.472 24.33 147.321 24.8288C147.212 25.2008 146.885 25.3354 146.491 25.185C145.71 24.8921 145.064 24.4171 144.535 23.8075C142.739 21.7096 142.227 17.5691 144.602 14.062C147.229 10.1749 152.114 8.60742 156.578 9.08242C161.908 9.65242 165.273 13.0883 165.903 16.9833C166.188 18.7566 165.987 23.1346 163.343 26.23C160.305 29.7846 155.378 30.0221 153.112 27.8371C152.911 27.655 152.777 27.4571 152.6 27.2592Z" fill="#FF0000"/>
</g>
<defs>
<linearGradient id="paint0_linear_73_1020" x1="207.417" y1="10.978" x2="233.711" y2="36.1458" gradientUnits="userSpaceOnUse">
<stop offset="0.0011048" stop-color="#FBE18A"/>
<stop offset="0.2094" stop-color="#FCBB45"/>
<stop offset="0.3765" stop-color="#F75274"/>
<stop offset="0.5238" stop-color="#D53692"/>
<stop offset="0.7394" stop-color="#8F39CE"/>
<stop offset="1" stop-color="#5B4FE9"/>
</linearGradient>
<linearGradient id="paint1_linear_73_1020" x1="207.417" y1="10.978" x2="233.711" y2="36.1458" gradientUnits="userSpaceOnUse">
<stop offset="0.0011048" stop-color="#FBE18A"/>
<stop offset="0.2094" stop-color="#FCBB45"/>
<stop offset="0.3765" stop-color="#F75274"/>
<stop offset="0.5238" stop-color="#D53692"/>
<stop offset="0.7394" stop-color="#8F39CE"/>
<stop offset="1" stop-color="#5B4FE9"/>
</linearGradient>
<linearGradient id="paint2_linear_73_1020" x1="207.417" y1="10.978" x2="233.711" y2="36.1458" gradientUnits="userSpaceOnUse">
<stop offset="0.0011048" stop-color="#FBE18A"/>
<stop offset="0.2094" stop-color="#FCBB45"/>
<stop offset="0.3765" stop-color="#F75274"/>
<stop offset="0.5238" stop-color="#D53692"/>
<stop offset="0.7394" stop-color="#8F39CE"/>
<stop offset="1" stop-color="#5B4FE9"/>
</linearGradient>
</defs>
</svg>
