<svg xmlns="http://www.w3.org/2000/svg" width="1920" height="1228" viewBox="0 0 1920 1228" fill="none">
  <path d="M3267.75 326.938L3179.7 -635L2064.78 -532.946C2078.01 -530.2 2091.32 -527.821 2104.23 -525.496C2267.05 -481.034 2391.19 -361.024 2391.19 -361.024C2391.19 -361.024 2435.7 -313.46 2432.56 -284.844C2428.27 -246.048 2180.53 -204.125 2134.63 -190.031C2019.56 -154.721 1896.85 -135.034 1789.4 -86.0329C1681.91 -36.9817 1588.84 53.1088 1599.53 149.53C1607.22 219.425 1667.42 279.479 1669.9 349.761C1672.27 419.513 1616.2 485.172 1547.12 530.258C1472.66 578.848 1380.71 609.703 1286.67 617.682C1205.29 624.591 1119.4 615.456 1044.83 644.405C969.017 673.874 922.646 735.812 871.898 790.011C821.205 844.206 750.073 897.708 667.375 894.53C558.85 890.389 494.037 792.177 388.204 774.884C299.334 760.399 210.997 806.618 137.111 852.233C107.302 870.655 77.0464 889.748 41.9195 900.023C-8.92619 914.93 -64.7037 909.873 -115.491 898.288C-119.871 897.295 -124.26 896.213 -128.593 895.126L-110.494 1092.86C-14.5616 1092.62 83.2896 1049.22 177.646 1063.83C294.158 1081.85 361.478 1180.33 471.45 1214.47C576.893 1247.22 698.714 1214.71 804.258 1175.19C1089.89 1068.19 1346.5 908.722 1643.55 826.537C1696.62 811.876 1757.47 800.235 1804.92 821.613C1850.31 842.101 1868.94 887.117 1871.12 929.457C1873.3 971.752 1862.71 1014.5 1866.12 1056.72C1867.71 1075.91 1873.2 1096.41 1891.46 1108.46C1911.04 1121.37 1939.56 1120.96 1965.45 1118.91C2283.87 1093.81 2555.97 918.528 2800.51 746.762C2945.6 644.804 3090.44 539.992 3200.83 413.511C3225.05 385.753 3247.57 356.8 3267.75 326.938Z" fill="url(#paint0_linear_62_543)"/>
  <defs>
    <linearGradient id="paint0_linear_62_543" x1="-165.436" y1="492.625" x2="3254.27" y2="179.604" gradientUnits="userSpaceOnUse">
      <stop stop-color="#148EFF" stop-opacity="0.61"/>
      <stop offset="1" stop-color="#7A14FF"/>
    </linearGradient>
  </defs>
</svg>