<svg width="22" height="25" viewBox="0 0 22 25" fill="none" xmlns="http://www.w3.org/2000/svg">
<g id="Vector">
<path d="M13.1309 11.961L16.2963 8.96104L2.21454 1.17488C2.0081 1.05538 1.78915 1.01136 1.5702 0.998779L13.1309 11.961Z" fill="#7A14FF"/>
<path d="M0.187673 1.76607C0.0750693 1.97991 0 2.2189 0 2.48935V23.5019C0 23.7724 0.0750693 24.0176 0.187673 24.2252L12.0299 12.9925L0.187673 1.76607Z" fill="#7A14FF"/>
<path d="M21.2258 11.6843L17.6788 9.72205L14.2256 12.9988L17.6788 16.2755L21.2258 14.3132C22.2581 13.7472 22.2581 12.2504 21.2258 11.6843Z" fill="#7A14FF"/>
<path d="M13.1309 14.0365L1.5702 24.9988C1.78915 24.9862 2.00185 24.9422 2.21454 24.8227L16.2963 17.0428L13.1309 14.0365Z" fill="#7A14FF"/>
</g>
</svg>
