<svg xmlns="http://www.w3.org/2000/svg" width="988" height="988" viewBox="0 0 988 988" fill="none">
  <path d="M494 987C221.724 987 1 766.276 1 494C1 221.724 221.724 1 494 1C766.276 1 987 221.724 987 494C987 766.276 766.276 987 494 987Z" stroke="url(#paint0_radial_108_530)" stroke-width="2" stroke-miterlimit="10"/>
  <path d="M494 974.212C228.786 974.212 13.7882 759.214 13.7882 494C13.7882 228.786 228.786 13.7882 494 13.7882C759.214 13.7882 974.212 228.786 974.212 494C974.212 759.214 759.214 974.212 494 974.212Z" stroke="url(#paint1_radial_108_530)" stroke-width="2" stroke-miterlimit="10"/>
  <path d="M494 961.04C236.061 961.04 26.9595 751.939 26.9595 494C26.9595 236.061 236.061 26.9595 494 26.9595C751.939 26.9595 961.04 236.061 961.04 494C961.04 751.939 751.939 961.04 494 961.04Z" stroke="url(#paint2_radial_108_530)" stroke-width="2" stroke-miterlimit="10"/>
  <path d="M494 947.475C243.553 947.475 40.525 744.447 40.525 494C40.525 243.553 243.553 40.5252 494 40.5252C744.447 40.5252 947.475 243.553 947.475 494C947.475 744.447 744.447 947.475 494 947.475Z" stroke="url(#paint3_radial_108_530)" stroke-width="2" stroke-miterlimit="10"/>
  <path d="M494 933.502C251.27 933.502 54.4985 736.73 54.4985 494C54.4985 251.27 251.27 54.4986 494 54.4986C736.73 54.4986 933.501 251.27 933.501 494C933.501 736.73 736.73 933.502 494 933.502Z" stroke="url(#paint4_radial_108_530)" stroke-width="2" stroke-miterlimit="10"/>
  <path d="M494 919.109C259.219 919.109 68.8908 728.781 68.8908 494C68.8908 259.219 259.219 68.8908 494 68.8908C728.781 68.8908 919.109 259.219 919.109 494C919.109 728.781 728.781 919.109 494 919.109Z" stroke="url(#paint5_radial_108_530)" stroke-width="2" stroke-miterlimit="10"/>
  <path d="M494 904.284C267.406 904.284 83.7156 720.594 83.7156 494C83.7156 267.406 267.406 83.7155 494 83.7155C720.594 83.7155 904.284 267.406 904.284 494C904.284 720.594 720.594 904.284 494 904.284Z" stroke="url(#paint6_radial_108_530)" stroke-width="2" stroke-miterlimit="10"/>
  <path d="M494 889.016C275.839 889.016 98.9839 712.161 98.9839 494C98.9839 275.839 275.839 98.9839 494 98.9839C712.161 98.9839 889.016 275.839 889.016 494C889.016 712.161 712.161 889.016 494 889.016Z" stroke="url(#paint7_radial_108_530)" stroke-width="2" stroke-miterlimit="10"/>
  <path d="M494 873.289C284.525 873.289 114.712 703.475 114.712 494C114.712 284.525 284.525 114.712 494 114.712C703.475 114.712 873.289 284.525 873.289 494C873.289 703.475 703.475 873.289 494 873.289Z" stroke="url(#paint8_radial_108_530)" stroke-width="2" stroke-miterlimit="10"/>
  <path d="M494 857.09C293.471 857.09 130.91 694.529 130.91 494C130.91 293.471 293.471 130.91 494 130.91C694.529 130.91 857.09 293.471 857.09 494C857.09 694.529 694.529 857.09 494 857.09Z" stroke="url(#paint9_radial_108_530)" stroke-width="2" stroke-miterlimit="10"/>
  <path d="M494 840.404C302.686 840.404 147.596 685.314 147.596 494C147.596 302.686 302.686 147.596 494 147.596C685.314 147.596 840.404 302.686 840.404 494C840.404 685.314 685.314 840.404 494 840.404Z" stroke="url(#paint10_radial_108_530)" stroke-width="2" stroke-miterlimit="10"/>
  <path d="M494 823.22C312.177 823.22 164.78 675.823 164.78 494C164.78 312.177 312.177 164.78 494 164.78C675.823 164.78 823.22 312.177 823.22 494C823.22 675.823 675.823 823.22 494 823.22Z" stroke="url(#paint11_radial_108_530)" stroke-width="2" stroke-miterlimit="10"/>
  <path d="M494 805.519C321.953 805.519 182.481 666.047 182.481 494C182.481 321.953 321.953 182.481 494 182.481C666.047 182.481 805.519 321.953 805.519 494C805.519 666.047 666.047 805.519 494 805.519Z" stroke="url(#paint12_radial_108_530)" stroke-width="2" stroke-miterlimit="10"/>
  <path d="M494 787.286C332.022 787.286 200.714 655.978 200.714 494C200.714 332.023 332.022 200.714 494 200.714C655.978 200.714 787.286 332.023 787.286 494C787.286 655.978 655.978 787.286 494 787.286Z" stroke="url(#paint13_radial_108_530)" stroke-width="2" stroke-miterlimit="10"/>
  <path d="M494 768.507C342.394 768.507 219.493 645.606 219.493 494C219.493 342.394 342.394 219.493 494 219.493C645.606 219.493 768.507 342.394 768.507 494C768.507 645.606 645.606 768.507 494 768.507Z" stroke="url(#paint14_radial_108_530)" stroke-width="2" stroke-miterlimit="10"/>
  <path d="M494 749.166C353.076 749.166 238.834 634.924 238.834 494C238.834 353.076 353.076 238.834 494 238.834C634.924 238.834 749.166 353.076 749.166 494C749.166 634.924 634.924 749.166 494 749.166Z" stroke="url(#paint15_radial_108_530)" stroke-width="2" stroke-miterlimit="10"/>
  <path d="M494 729.242C364.079 729.242 258.758 623.921 258.758 494C258.758 364.079 364.079 258.758 494 258.758C623.921 258.758 729.242 364.079 729.242 494C729.242 623.921 623.921 729.242 494 729.242Z" stroke="url(#paint16_radial_108_530)" stroke-width="2" stroke-miterlimit="10"/>
  <path d="M494 708.722C375.412 708.722 279.278 612.588 279.278 494C279.278 375.412 375.412 279.278 494 279.278C612.588 279.278 708.722 375.412 708.722 494C708.722 612.588 612.588 708.722 494 708.722Z" stroke="url(#paint17_radial_108_530)" stroke-width="2" stroke-miterlimit="10"/>
  <path d="M494 687.586C387.085 687.586 300.414 600.915 300.414 494C300.414 387.086 387.085 300.414 494 300.414C600.915 300.414 687.586 387.086 687.586 494C687.586 600.915 600.915 687.586 494 687.586Z" stroke="url(#paint18_radial_108_530)" stroke-width="2" stroke-miterlimit="10"/>
  <path d="M494 665.816C399.109 665.816 322.184 588.892 322.184 494C322.184 399.109 399.109 322.184 494 322.184C588.892 322.184 665.816 399.109 665.816 494C665.816 588.892 588.892 665.816 494 665.816Z" stroke="url(#paint19_radial_108_530)" stroke-width="2" stroke-miterlimit="10"/>
  <path d="M494 643.392C411.493 643.392 344.608 576.507 344.608 494C344.608 411.493 411.493 344.608 494 344.608C576.507 344.608 643.392 411.493 643.392 494C643.392 576.507 576.507 643.392 494 643.392Z" stroke="url(#paint20_radial_108_530)" stroke-width="2" stroke-miterlimit="10"/>
  <path d="M494 620.298C424.248 620.298 367.702 563.752 367.702 494C367.702 424.248 424.248 367.702 494 367.702C563.752 367.702 620.298 424.248 620.298 494C620.298 563.752 563.752 620.298 494 620.298Z" stroke="url(#paint21_radial_108_530)" stroke-width="2" stroke-miterlimit="10"/>
  <path d="M494 596.509C437.386 596.509 391.49 550.614 391.49 494C391.49 437.386 437.386 391.49 494 391.49C550.614 391.49 596.51 437.386 596.51 494C596.51 550.614 550.614 596.509 494 596.509Z" stroke="url(#paint22_radial_108_530)" stroke-width="2" stroke-miterlimit="10"/>
  <path d="M494 572.006C450.918 572.006 415.994 537.082 415.994 494C415.994 450.918 450.918 415.994 494 415.994C537.082 415.994 572.006 450.918 572.006 494C572.006 537.082 537.082 572.006 494 572.006Z" stroke="url(#paint23_radial_108_530)" stroke-width="2" stroke-miterlimit="10"/>
  <path d="M494 546.768C464.857 546.768 441.232 523.143 441.232 494C441.232 464.857 464.857 441.232 494 441.232C523.143 441.232 546.768 464.857 546.768 494C546.768 523.143 523.143 546.768 494 546.768Z" stroke="url(#paint24_radial_108_530)" stroke-width="2" stroke-miterlimit="10"/>
  <path d="M494 520.775C479.213 520.775 467.225 508.787 467.225 494C467.225 479.213 479.213 467.225 494 467.225C508.787 467.225 520.775 479.213 520.775 494C520.775 508.787 508.787 520.775 494 520.775Z" stroke="url(#paint25_radial_108_530)" stroke-width="2" stroke-miterlimit="10"/>
  <defs>
    <radialGradient id="paint0_radial_108_530" cx="0" cy="0" r="1" gradientUnits="userSpaceOnUse" gradientTransform="translate(494 494) rotate(90) scale(493)">
      <stop stop-color="#7A14FF"/>
      <stop offset="0.901042" stop-color="#7A14FF" stop-opacity="0"/>
    </radialGradient>
    <radialGradient id="paint1_radial_108_530" cx="0" cy="0" r="1" gradientUnits="userSpaceOnUse" gradientTransform="translate(494 494) rotate(90) scale(493)">
      <stop stop-color="#7A14FF"/>
      <stop offset="0.901042" stop-color="#7A14FF" stop-opacity="0"/>
    </radialGradient>
    <radialGradient id="paint2_radial_108_530" cx="0" cy="0" r="1" gradientUnits="userSpaceOnUse" gradientTransform="translate(494 494) rotate(90) scale(493)">
      <stop stop-color="#7A14FF"/>
      <stop offset="0.901042" stop-color="#7A14FF" stop-opacity="0"/>
    </radialGradient>
    <radialGradient id="paint3_radial_108_530" cx="0" cy="0" r="1" gradientUnits="userSpaceOnUse" gradientTransform="translate(494 494) rotate(90) scale(493)">
      <stop stop-color="#7A14FF"/>
      <stop offset="0.901042" stop-color="#7A14FF" stop-opacity="0"/>
    </radialGradient>
    <radialGradient id="paint4_radial_108_530" cx="0" cy="0" r="1" gradientUnits="userSpaceOnUse" gradientTransform="translate(494 494) rotate(90) scale(493)">
      <stop stop-color="#7A14FF"/>
      <stop offset="0.901042" stop-color="#7A14FF" stop-opacity="0"/>
    </radialGradient>
    <radialGradient id="paint5_radial_108_530" cx="0" cy="0" r="1" gradientUnits="userSpaceOnUse" gradientTransform="translate(494 494) rotate(90) scale(493)">
      <stop stop-color="#7A14FF"/>
      <stop offset="0.901042" stop-color="#7A14FF" stop-opacity="0"/>
    </radialGradient>
    <radialGradient id="paint6_radial_108_530" cx="0" cy="0" r="1" gradientUnits="userSpaceOnUse" gradientTransform="translate(494 494) rotate(90) scale(493)">
      <stop stop-color="#7A14FF"/>
      <stop offset="0.901042" stop-color="#7A14FF" stop-opacity="0"/>
    </radialGradient>
    <radialGradient id="paint7_radial_108_530" cx="0" cy="0" r="1" gradientUnits="userSpaceOnUse" gradientTransform="translate(494 494) rotate(90) scale(493)">
      <stop stop-color="#7A14FF"/>
      <stop offset="0.901042" stop-color="#7A14FF" stop-opacity="0"/>
    </radialGradient>
    <radialGradient id="paint8_radial_108_530" cx="0" cy="0" r="1" gradientUnits="userSpaceOnUse" gradientTransform="translate(494 494) rotate(90) scale(493)">
      <stop stop-color="#7A14FF"/>
      <stop offset="0.901042" stop-color="#7A14FF" stop-opacity="0"/>
    </radialGradient>
    <radialGradient id="paint9_radial_108_530" cx="0" cy="0" r="1" gradientUnits="userSpaceOnUse" gradientTransform="translate(494 494) rotate(90) scale(493)">
      <stop stop-color="#7A14FF"/>
      <stop offset="0.901042" stop-color="#7A14FF" stop-opacity="0"/>
    </radialGradient>
    <radialGradient id="paint10_radial_108_530" cx="0" cy="0" r="1" gradientUnits="userSpaceOnUse" gradientTransform="translate(494 494) rotate(90) scale(493)">
      <stop stop-color="#7A14FF"/>
      <stop offset="0.901042" stop-color="#7A14FF" stop-opacity="0"/>
    </radialGradient>
    <radialGradient id="paint11_radial_108_530" cx="0" cy="0" r="1" gradientUnits="userSpaceOnUse" gradientTransform="translate(494 494) rotate(90) scale(493)">
      <stop stop-color="#7A14FF"/>
      <stop offset="0.901042" stop-color="#7A14FF" stop-opacity="0"/>
    </radialGradient>
    <radialGradient id="paint12_radial_108_530" cx="0" cy="0" r="1" gradientUnits="userSpaceOnUse" gradientTransform="translate(494 494) rotate(90) scale(493)">
      <stop stop-color="#7A14FF"/>
      <stop offset="0.901042" stop-color="#7A14FF" stop-opacity="0"/>
    </radialGradient>
    <radialGradient id="paint13_radial_108_530" cx="0" cy="0" r="1" gradientUnits="userSpaceOnUse" gradientTransform="translate(494 494) rotate(90) scale(493)">
      <stop stop-color="#7A14FF"/>
      <stop offset="0.901042" stop-color="#7A14FF" stop-opacity="0"/>
    </radialGradient>
    <radialGradient id="paint14_radial_108_530" cx="0" cy="0" r="1" gradientUnits="userSpaceOnUse" gradientTransform="translate(494 494) rotate(90) scale(493)">
      <stop stop-color="#7A14FF"/>
      <stop offset="0.901042" stop-color="#7A14FF" stop-opacity="0"/>
    </radialGradient>
    <radialGradient id="paint15_radial_108_530" cx="0" cy="0" r="1" gradientUnits="userSpaceOnUse" gradientTransform="translate(494 494) rotate(90) scale(493)">
      <stop stop-color="#7A14FF"/>
      <stop offset="0.901042" stop-color="#7A14FF" stop-opacity="0"/>
    </radialGradient>
    <radialGradient id="paint16_radial_108_530" cx="0" cy="0" r="1" gradientUnits="userSpaceOnUse" gradientTransform="translate(494 494) rotate(90) scale(493)">
      <stop stop-color="#7A14FF"/>
      <stop offset="0.901042" stop-color="#7A14FF" stop-opacity="0"/>
    </radialGradient>
    <radialGradient id="paint17_radial_108_530" cx="0" cy="0" r="1" gradientUnits="userSpaceOnUse" gradientTransform="translate(494 494) rotate(90) scale(493)">
      <stop stop-color="#7A14FF"/>
      <stop offset="0.901042" stop-color="#7A14FF" stop-opacity="0"/>
    </radialGradient>
    <radialGradient id="paint18_radial_108_530" cx="0" cy="0" r="1" gradientUnits="userSpaceOnUse" gradientTransform="translate(494 494) rotate(90) scale(493)">
      <stop stop-color="#7A14FF"/>
      <stop offset="0.901042" stop-color="#7A14FF" stop-opacity="0"/>
    </radialGradient>
    <radialGradient id="paint19_radial_108_530" cx="0" cy="0" r="1" gradientUnits="userSpaceOnUse" gradientTransform="translate(494 494) rotate(90) scale(493)">
      <stop stop-color="#7A14FF"/>
      <stop offset="0.901042" stop-color="#7A14FF" stop-opacity="0"/>
    </radialGradient>
    <radialGradient id="paint20_radial_108_530" cx="0" cy="0" r="1" gradientUnits="userSpaceOnUse" gradientTransform="translate(494 494) rotate(90) scale(493)">
      <stop stop-color="#7A14FF"/>
      <stop offset="0.901042" stop-color="#7A14FF" stop-opacity="0"/>
    </radialGradient>
    <radialGradient id="paint21_radial_108_530" cx="0" cy="0" r="1" gradientUnits="userSpaceOnUse" gradientTransform="translate(494 494) rotate(90) scale(493)">
      <stop stop-color="#7A14FF"/>
      <stop offset="0.901042" stop-color="#7A14FF" stop-opacity="0"/>
    </radialGradient>
    <radialGradient id="paint22_radial_108_530" cx="0" cy="0" r="1" gradientUnits="userSpaceOnUse" gradientTransform="translate(494 494) rotate(90) scale(493)">
      <stop stop-color="#7A14FF"/>
      <stop offset="0.901042" stop-color="#7A14FF" stop-opacity="0"/>
    </radialGradient>
    <radialGradient id="paint23_radial_108_530" cx="0" cy="0" r="1" gradientUnits="userSpaceOnUse" gradientTransform="translate(494 494) rotate(90) scale(493)">
      <stop stop-color="#7A14FF"/>
      <stop offset="0.901042" stop-color="#7A14FF" stop-opacity="0"/>
    </radialGradient>
    <radialGradient id="paint24_radial_108_530" cx="0" cy="0" r="1" gradientUnits="userSpaceOnUse" gradientTransform="translate(494 494) rotate(90) scale(493)">
      <stop stop-color="#7A14FF"/>
      <stop offset="0.901042" stop-color="#7A14FF" stop-opacity="0"/>
    </radialGradient>
    <radialGradient id="paint25_radial_108_530" cx="0" cy="0" r="1" gradientUnits="userSpaceOnUse" gradientTransform="translate(494 494) rotate(90) scale(493)">
      <stop stop-color="#7A14FF"/>
      <stop offset="0.901042" stop-color="#7A14FF" stop-opacity="0"/>
    </radialGradient>
  </defs>
</svg>